<svg width="20" height="21" viewBox="0 0 20 21" fill="none" xmlns="http://www.w3.org/2000/svg">
<path d="M14.3749 5.49996H14.3785H14.3749ZM18.7324 4.24996H15.1753L15.5238 2.85699L17.0206 2.34723C17.339 2.23902 17.5285 1.90074 17.4367 1.57731C17.4133 1.49594 17.3737 1.42017 17.3201 1.35459C17.2666 1.28901 17.2003 1.23498 17.1253 1.19579C17.0503 1.1566 16.9681 1.13305 16.8837 1.12658C16.7993 1.12012 16.7144 1.13086 16.6343 1.15816L14.7984 1.78316C14.6995 1.81688 14.6107 1.87484 14.54 1.95174C14.4693 2.02865 14.419 2.12205 14.3937 2.2234L13.8871 4.24996H8.76752C8.43119 4.24996 8.14252 4.50856 8.12572 4.84488C8.12165 4.92939 8.13478 5.01384 8.16431 5.09312C8.19384 5.17241 8.23917 5.24487 8.29753 5.30612C8.35589 5.36737 8.42609 5.41613 8.50385 5.44945C8.58162 5.48277 8.66534 5.49995 8.74994 5.49996H8.85736L8.89643 5.83824C8.90563 5.91724 8.94354 5.9901 9.00296 6.04297C9.06238 6.09584 9.13916 6.12502 9.21869 6.12496C10.7421 6.12496 12.096 6.55074 13.1296 7.35621C13.7045 7.79918 14.1706 8.36769 14.4921 9.01832C14.6721 9.38429 14.805 9.77163 14.8874 10.1711C14.9039 10.2489 14.95 10.3173 15.016 10.3617C15.5473 10.7222 15.9393 11.2538 16.1268 11.868C16.3143 12.4822 16.2859 13.142 16.0464 13.7379C16.0186 13.8068 16.0165 13.8835 16.0406 13.9539C16.179 14.3504 16.2497 14.7674 16.2499 15.1875C16.2499 16.0601 15.9531 16.8918 15.414 17.5293C15.1084 17.8931 14.7239 18.1826 14.2898 18.3757C14.2147 18.4088 14.1556 18.4702 14.1253 18.5464C13.9631 18.9691 13.734 19.3629 13.4468 19.7129C13.4349 19.7271 13.4272 19.7444 13.4247 19.7628C13.4223 19.7812 13.4251 19.7999 13.4329 19.8167C13.4407 19.8336 13.4531 19.8479 13.4687 19.8579C13.4843 19.8679 13.5025 19.8733 13.521 19.8734H15.4433C15.9139 19.8715 16.3668 19.6934 16.7128 19.3743C17.0587 19.0552 17.2726 18.6181 17.3124 18.1492L18.6484 5.49996H18.7499C18.8346 5.50006 18.9184 5.48295 18.9963 5.44968C19.0741 5.41641 19.1444 5.36766 19.2029 5.3064C19.2613 5.24514 19.3067 5.17264 19.3363 5.09331C19.3659 5.01397 19.379 4.92946 19.3749 4.84488C19.3585 4.50856 19.0687 4.24996 18.7324 4.24996Z" fill="white"/>
<path d="M4.2457 13C4.36897 12.9994 4.49113 13.0233 4.60512 13.0702C4.7191 13.1172 4.82265 13.1862 4.90977 13.2734L5.51562 13.8793C5.53014 13.8938 5.54737 13.9053 5.56634 13.9132C5.58531 13.9211 5.60564 13.9251 5.62617 13.9251C5.64671 13.9251 5.66704 13.9211 5.68601 13.9132C5.70498 13.9053 5.72221 13.8938 5.73672 13.8793L6.34141 13.2734C6.42853 13.1862 6.53207 13.1172 6.64606 13.0702C6.76004 13.0233 6.8822 12.9994 7.00547 13H14.6844C14.7254 13.0004 14.7661 12.9927 14.8042 12.9774C14.8423 12.9621 14.877 12.9394 14.9063 12.9107C14.9356 12.882 14.9589 12.8477 14.975 12.81C14.9911 12.7722 14.9996 12.7317 15 12.6906V12.6875C14.9996 12.3274 14.875 11.9785 14.6473 11.6996C14.4196 11.4207 14.1027 11.2288 13.75 11.1562C13.718 9.99648 13.2422 9.02578 12.3629 8.34375C11.5496 7.70938 10.4629 7.375 9.21875 7.375H6.40625C3.74141 7.375 1.93633 8.88945 1.875 11.1562C1.52231 11.2288 1.20541 11.4207 0.977707 11.6996C0.750008 11.9785 0.62544 12.3274 0.625 12.6875C0.625 12.7704 0.657924 12.8499 0.716529 12.9085C0.775135 12.9671 0.85462 13 0.9375 13H4.2457ZM7.26328 14.25C7.22223 14.25 7.18158 14.258 7.14364 14.2737C7.10571 14.2894 7.07123 14.3124 7.04219 14.3414L6.17734 15.2066C6.03084 15.3531 5.83216 15.4354 5.625 15.4354C5.41784 15.4354 5.21916 15.3531 5.07266 15.2066L4.20781 14.3414C4.17877 14.3124 4.1443 14.2894 4.10636 14.2737C4.06842 14.258 4.02777 14.25 3.98672 14.25H1.27578C1.12897 14.2493 0.98665 14.3006 0.873992 14.3948C0.761335 14.4889 0.685592 14.6199 0.660157 14.7645C0.636689 14.9042 0.62493 15.0458 0.625 15.1875C0.625 16.3824 1.45039 17.3559 2.47109 17.375C2.56602 17.9656 2.7957 18.4992 3.14141 18.9168C3.65273 19.5344 4.39609 19.875 5.23438 19.875H10.3906C11.2289 19.875 11.9723 19.5344 12.4836 18.916C12.8293 18.4984 13.059 17.9648 13.1539 17.3742C14.1746 17.3559 15 16.3824 15 15.1867C15.0001 15.045 14.9883 14.9035 14.9648 14.7637C14.9392 14.6192 14.8634 14.4885 14.7508 14.3945C14.6381 14.3005 14.4959 14.2493 14.3492 14.25H7.26328Z" fill="white"/>
</svg>
